G04 #@! TF.FileFunction,Legend,Bot*
%FSLAX46Y46*%
G04 Gerber Fmt 4.6, Leading zero omitted, Abs format (unit mm)*
G04 Created by KiCad (PCBNEW 4.0.1-3.201512221402+6198~38~ubuntu14.04.1-stable) date Sun 24 Jan 2016 12:58:10 PM PST*
%MOMM*%
G01*
G04 APERTURE LIST*
%ADD10C,0.100000*%
%ADD11C,0.150000*%
G04 APERTURE END LIST*
D10*
D11*
X171005524Y-109454905D02*
X171005524Y-108654905D01*
X170548381Y-109454905D02*
X170891238Y-108997762D01*
X170548381Y-108654905D02*
X171005524Y-109112048D01*
X169900762Y-109416810D02*
X169976952Y-109454905D01*
X170129333Y-109454905D01*
X170205524Y-109416810D01*
X170243619Y-109340619D01*
X170243619Y-109035857D01*
X170205524Y-108959667D01*
X170129333Y-108921571D01*
X169976952Y-108921571D01*
X169900762Y-108959667D01*
X169862667Y-109035857D01*
X169862667Y-109112048D01*
X170243619Y-109188238D01*
X169596000Y-108921571D02*
X169405524Y-109454905D01*
X169215048Y-108921571D02*
X169405524Y-109454905D01*
X169481715Y-109645381D01*
X169519810Y-109683476D01*
X169596000Y-109721571D01*
X168910286Y-109378714D02*
X168872191Y-109416810D01*
X168910286Y-109454905D01*
X168948381Y-109416810D01*
X168910286Y-109378714D01*
X168910286Y-109454905D01*
X168910286Y-108959667D02*
X168872191Y-108997762D01*
X168910286Y-109035857D01*
X168948381Y-108997762D01*
X168910286Y-108959667D01*
X168910286Y-109035857D01*
X171005524Y-110724905D02*
X171005524Y-109924905D01*
X170624572Y-110724905D02*
X170624572Y-109924905D01*
X170167429Y-110724905D01*
X170167429Y-109924905D01*
X169367429Y-110724905D02*
X169824572Y-110724905D01*
X169596001Y-110724905D02*
X169596001Y-109924905D01*
X169672191Y-110039190D01*
X169748382Y-110115381D01*
X169824572Y-110153476D01*
X168415048Y-110420143D02*
X167805524Y-110420143D01*
X167424572Y-110191571D02*
X166815048Y-110420143D01*
X167424572Y-110648714D01*
X165367429Y-110724905D02*
X165634096Y-110343952D01*
X165824572Y-110724905D02*
X165824572Y-109924905D01*
X165519810Y-109924905D01*
X165443619Y-109963000D01*
X165405524Y-110001095D01*
X165367429Y-110077286D01*
X165367429Y-110191571D01*
X165405524Y-110267762D01*
X165443619Y-110305857D01*
X165519810Y-110343952D01*
X165824572Y-110343952D01*
X164757905Y-110305857D02*
X164643619Y-110343952D01*
X164605524Y-110382048D01*
X164567429Y-110458238D01*
X164567429Y-110572524D01*
X164605524Y-110648714D01*
X164643619Y-110686810D01*
X164719810Y-110724905D01*
X165024572Y-110724905D01*
X165024572Y-109924905D01*
X164757905Y-109924905D01*
X164681715Y-109963000D01*
X164643619Y-110001095D01*
X164605524Y-110077286D01*
X164605524Y-110153476D01*
X164643619Y-110229667D01*
X164681715Y-110267762D01*
X164757905Y-110305857D01*
X165024572Y-110305857D01*
X164300762Y-109924905D02*
X163767429Y-109924905D01*
X164110286Y-110724905D01*
X171005524Y-111575857D02*
X170738857Y-111575857D01*
X170624571Y-111994905D02*
X171005524Y-111994905D01*
X171005524Y-111194905D01*
X170624571Y-111194905D01*
X170281714Y-111994905D02*
X170281714Y-111194905D01*
X169824571Y-111994905D01*
X169824571Y-111194905D01*
X169481714Y-111766333D02*
X169100762Y-111766333D01*
X169557905Y-111994905D02*
X169291238Y-111194905D01*
X169024571Y-111994905D01*
X168148381Y-111690143D02*
X167538857Y-111690143D01*
X167157905Y-111461571D02*
X166548381Y-111690143D01*
X167157905Y-111918714D01*
X165100762Y-111994905D02*
X165367429Y-111613952D01*
X165557905Y-111994905D02*
X165557905Y-111194905D01*
X165253143Y-111194905D01*
X165176952Y-111233000D01*
X165138857Y-111271095D01*
X165100762Y-111347286D01*
X165100762Y-111461571D01*
X165138857Y-111537762D01*
X165176952Y-111575857D01*
X165253143Y-111613952D01*
X165557905Y-111613952D01*
X164796000Y-111766333D02*
X164415048Y-111766333D01*
X164872191Y-111994905D02*
X164605524Y-111194905D01*
X164338857Y-111994905D01*
X164110286Y-111271095D02*
X164072191Y-111233000D01*
X163996000Y-111194905D01*
X163805524Y-111194905D01*
X163729334Y-111233000D01*
X163691238Y-111271095D01*
X163653143Y-111347286D01*
X163653143Y-111423476D01*
X163691238Y-111537762D01*
X164148381Y-111994905D01*
X163653143Y-111994905D01*
X171005524Y-113264905D02*
X171005524Y-112464905D01*
X170624572Y-113264905D02*
X170624572Y-112464905D01*
X170167429Y-113264905D01*
X170167429Y-112464905D01*
X169824572Y-112541095D02*
X169786477Y-112503000D01*
X169710286Y-112464905D01*
X169519810Y-112464905D01*
X169443620Y-112503000D01*
X169405524Y-112541095D01*
X169367429Y-112617286D01*
X169367429Y-112693476D01*
X169405524Y-112807762D01*
X169862667Y-113264905D01*
X169367429Y-113264905D01*
X168415048Y-112960143D02*
X167805524Y-112960143D01*
X167424572Y-112731571D02*
X166815048Y-112960143D01*
X167424572Y-113188714D01*
X165367429Y-113264905D02*
X165634096Y-112883952D01*
X165824572Y-113264905D02*
X165824572Y-112464905D01*
X165519810Y-112464905D01*
X165443619Y-112503000D01*
X165405524Y-112541095D01*
X165367429Y-112617286D01*
X165367429Y-112731571D01*
X165405524Y-112807762D01*
X165443619Y-112845857D01*
X165519810Y-112883952D01*
X165824572Y-112883952D01*
X164757905Y-112845857D02*
X164643619Y-112883952D01*
X164605524Y-112922048D01*
X164567429Y-112998238D01*
X164567429Y-113112524D01*
X164605524Y-113188714D01*
X164643619Y-113226810D01*
X164719810Y-113264905D01*
X165024572Y-113264905D01*
X165024572Y-112464905D01*
X164757905Y-112464905D01*
X164681715Y-112503000D01*
X164643619Y-112541095D01*
X164605524Y-112617286D01*
X164605524Y-112693476D01*
X164643619Y-112769667D01*
X164681715Y-112807762D01*
X164757905Y-112845857D01*
X165024572Y-112845857D01*
X164110286Y-112807762D02*
X164186477Y-112769667D01*
X164224572Y-112731571D01*
X164262667Y-112655381D01*
X164262667Y-112617286D01*
X164224572Y-112541095D01*
X164186477Y-112503000D01*
X164110286Y-112464905D01*
X163957905Y-112464905D01*
X163881715Y-112503000D01*
X163843619Y-112541095D01*
X163805524Y-112617286D01*
X163805524Y-112655381D01*
X163843619Y-112731571D01*
X163881715Y-112769667D01*
X163957905Y-112807762D01*
X164110286Y-112807762D01*
X164186477Y-112845857D01*
X164224572Y-112883952D01*
X164262667Y-112960143D01*
X164262667Y-113112524D01*
X164224572Y-113188714D01*
X164186477Y-113226810D01*
X164110286Y-113264905D01*
X163957905Y-113264905D01*
X163881715Y-113226810D01*
X163843619Y-113188714D01*
X163805524Y-113112524D01*
X163805524Y-112960143D01*
X163843619Y-112883952D01*
X163881715Y-112845857D01*
X163957905Y-112807762D01*
X170548381Y-114458714D02*
X170586476Y-114496810D01*
X170700762Y-114534905D01*
X170776952Y-114534905D01*
X170891238Y-114496810D01*
X170967429Y-114420619D01*
X171005524Y-114344429D01*
X171043619Y-114192048D01*
X171043619Y-114077762D01*
X171005524Y-113925381D01*
X170967429Y-113849190D01*
X170891238Y-113773000D01*
X170776952Y-113734905D01*
X170700762Y-113734905D01*
X170586476Y-113773000D01*
X170548381Y-113811095D01*
X170243619Y-114496810D02*
X170129333Y-114534905D01*
X169938857Y-114534905D01*
X169862667Y-114496810D01*
X169824571Y-114458714D01*
X169786476Y-114382524D01*
X169786476Y-114306333D01*
X169824571Y-114230143D01*
X169862667Y-114192048D01*
X169938857Y-114153952D01*
X170091238Y-114115857D01*
X170167429Y-114077762D01*
X170205524Y-114039667D01*
X170243619Y-113963476D01*
X170243619Y-113887286D01*
X170205524Y-113811095D01*
X170167429Y-113773000D01*
X170091238Y-113734905D01*
X169900762Y-113734905D01*
X169786476Y-113773000D01*
X169481714Y-114306333D02*
X169100762Y-114306333D01*
X169557905Y-114534905D02*
X169291238Y-113734905D01*
X169024571Y-114534905D01*
X168148381Y-114230143D02*
X167538857Y-114230143D01*
X167157905Y-114001571D02*
X166548381Y-114230143D01*
X167157905Y-114458714D01*
X165100762Y-114534905D02*
X165367429Y-114153952D01*
X165557905Y-114534905D02*
X165557905Y-113734905D01*
X165253143Y-113734905D01*
X165176952Y-113773000D01*
X165138857Y-113811095D01*
X165100762Y-113887286D01*
X165100762Y-114001571D01*
X165138857Y-114077762D01*
X165176952Y-114115857D01*
X165253143Y-114153952D01*
X165557905Y-114153952D01*
X164491238Y-114115857D02*
X164376952Y-114153952D01*
X164338857Y-114192048D01*
X164300762Y-114268238D01*
X164300762Y-114382524D01*
X164338857Y-114458714D01*
X164376952Y-114496810D01*
X164453143Y-114534905D01*
X164757905Y-114534905D01*
X164757905Y-113734905D01*
X164491238Y-113734905D01*
X164415048Y-113773000D01*
X164376952Y-113811095D01*
X164338857Y-113887286D01*
X164338857Y-113963476D01*
X164376952Y-114039667D01*
X164415048Y-114077762D01*
X164491238Y-114115857D01*
X164757905Y-114115857D01*
X163805524Y-113734905D02*
X163729333Y-113734905D01*
X163653143Y-113773000D01*
X163615048Y-113811095D01*
X163576952Y-113887286D01*
X163538857Y-114039667D01*
X163538857Y-114230143D01*
X163576952Y-114382524D01*
X163615048Y-114458714D01*
X163653143Y-114496810D01*
X163729333Y-114534905D01*
X163805524Y-114534905D01*
X163881714Y-114496810D01*
X163919810Y-114458714D01*
X163957905Y-114382524D01*
X163996000Y-114230143D01*
X163996000Y-114039667D01*
X163957905Y-113887286D01*
X163919810Y-113811095D01*
X163881714Y-113773000D01*
X163805524Y-113734905D01*
X171005524Y-115804905D02*
X171005524Y-115004905D01*
X170624572Y-115804905D02*
X170624572Y-115004905D01*
X170167429Y-115804905D01*
X170167429Y-115004905D01*
X169862667Y-115004905D02*
X169367429Y-115004905D01*
X169634096Y-115309667D01*
X169519810Y-115309667D01*
X169443620Y-115347762D01*
X169405524Y-115385857D01*
X169367429Y-115462048D01*
X169367429Y-115652524D01*
X169405524Y-115728714D01*
X169443620Y-115766810D01*
X169519810Y-115804905D01*
X169748382Y-115804905D01*
X169824572Y-115766810D01*
X169862667Y-115728714D01*
X168415048Y-115500143D02*
X167805524Y-115500143D01*
X167424572Y-115271571D02*
X166815048Y-115500143D01*
X167424572Y-115728714D01*
X165367429Y-115804905D02*
X165634096Y-115423952D01*
X165824572Y-115804905D02*
X165824572Y-115004905D01*
X165519810Y-115004905D01*
X165443619Y-115043000D01*
X165405524Y-115081095D01*
X165367429Y-115157286D01*
X165367429Y-115271571D01*
X165405524Y-115347762D01*
X165443619Y-115385857D01*
X165519810Y-115423952D01*
X165824572Y-115423952D01*
X164757905Y-115385857D02*
X164643619Y-115423952D01*
X164605524Y-115462048D01*
X164567429Y-115538238D01*
X164567429Y-115652524D01*
X164605524Y-115728714D01*
X164643619Y-115766810D01*
X164719810Y-115804905D01*
X165024572Y-115804905D01*
X165024572Y-115004905D01*
X164757905Y-115004905D01*
X164681715Y-115043000D01*
X164643619Y-115081095D01*
X164605524Y-115157286D01*
X164605524Y-115233476D01*
X164643619Y-115309667D01*
X164681715Y-115347762D01*
X164757905Y-115385857D01*
X165024572Y-115385857D01*
X164186477Y-115804905D02*
X164034096Y-115804905D01*
X163957905Y-115766810D01*
X163919810Y-115728714D01*
X163843619Y-115614429D01*
X163805524Y-115462048D01*
X163805524Y-115157286D01*
X163843619Y-115081095D01*
X163881715Y-115043000D01*
X163957905Y-115004905D01*
X164110286Y-115004905D01*
X164186477Y-115043000D01*
X164224572Y-115081095D01*
X164262667Y-115157286D01*
X164262667Y-115347762D01*
X164224572Y-115423952D01*
X164186477Y-115462048D01*
X164110286Y-115500143D01*
X163957905Y-115500143D01*
X163881715Y-115462048D01*
X163843619Y-115423952D01*
X163805524Y-115347762D01*
X171005524Y-116655857D02*
X170738857Y-116655857D01*
X170624571Y-117074905D02*
X171005524Y-117074905D01*
X171005524Y-116274905D01*
X170624571Y-116274905D01*
X170281714Y-117074905D02*
X170281714Y-116274905D01*
X169824571Y-117074905D01*
X169824571Y-116274905D01*
X169176952Y-116655857D02*
X169062666Y-116693952D01*
X169024571Y-116732048D01*
X168986476Y-116808238D01*
X168986476Y-116922524D01*
X169024571Y-116998714D01*
X169062666Y-117036810D01*
X169138857Y-117074905D01*
X169443619Y-117074905D01*
X169443619Y-116274905D01*
X169176952Y-116274905D01*
X169100762Y-116313000D01*
X169062666Y-116351095D01*
X169024571Y-116427286D01*
X169024571Y-116503476D01*
X169062666Y-116579667D01*
X169100762Y-116617762D01*
X169176952Y-116655857D01*
X169443619Y-116655857D01*
X168034095Y-116770143D02*
X167424571Y-116770143D01*
X167043619Y-116541571D02*
X166434095Y-116770143D01*
X167043619Y-116998714D01*
X164986476Y-117074905D02*
X165253143Y-116693952D01*
X165443619Y-117074905D02*
X165443619Y-116274905D01*
X165138857Y-116274905D01*
X165062666Y-116313000D01*
X165024571Y-116351095D01*
X164986476Y-116427286D01*
X164986476Y-116541571D01*
X165024571Y-116617762D01*
X165062666Y-116655857D01*
X165138857Y-116693952D01*
X165443619Y-116693952D01*
X164681714Y-116846333D02*
X164300762Y-116846333D01*
X164757905Y-117074905D02*
X164491238Y-116274905D01*
X164224571Y-117074905D01*
X164034095Y-116274905D02*
X163538857Y-116274905D01*
X163805524Y-116579667D01*
X163691238Y-116579667D01*
X163615048Y-116617762D01*
X163576952Y-116655857D01*
X163538857Y-116732048D01*
X163538857Y-116922524D01*
X163576952Y-116998714D01*
X163615048Y-117036810D01*
X163691238Y-117074905D01*
X163919810Y-117074905D01*
X163996000Y-117036810D01*
X164034095Y-116998714D01*
X171005524Y-118344905D02*
X171005524Y-117544905D01*
X170624572Y-118344905D02*
X170624572Y-117544905D01*
X170167429Y-118344905D01*
X170167429Y-117544905D01*
X169443620Y-117811571D02*
X169443620Y-118344905D01*
X169634096Y-117506810D02*
X169824572Y-118078238D01*
X169329334Y-118078238D01*
X168415048Y-118040143D02*
X167805524Y-118040143D01*
X167424572Y-117811571D02*
X166815048Y-118040143D01*
X167424572Y-118268714D01*
X165367429Y-118344905D02*
X165634096Y-117963952D01*
X165824572Y-118344905D02*
X165824572Y-117544905D01*
X165519810Y-117544905D01*
X165443619Y-117583000D01*
X165405524Y-117621095D01*
X165367429Y-117697286D01*
X165367429Y-117811571D01*
X165405524Y-117887762D01*
X165443619Y-117925857D01*
X165519810Y-117963952D01*
X165824572Y-117963952D01*
X164757905Y-117925857D02*
X164643619Y-117963952D01*
X164605524Y-118002048D01*
X164567429Y-118078238D01*
X164567429Y-118192524D01*
X164605524Y-118268714D01*
X164643619Y-118306810D01*
X164719810Y-118344905D01*
X165024572Y-118344905D01*
X165024572Y-117544905D01*
X164757905Y-117544905D01*
X164681715Y-117583000D01*
X164643619Y-117621095D01*
X164605524Y-117697286D01*
X164605524Y-117773476D01*
X164643619Y-117849667D01*
X164681715Y-117887762D01*
X164757905Y-117925857D01*
X165024572Y-117925857D01*
X163805524Y-118344905D02*
X164262667Y-118344905D01*
X164034096Y-118344905D02*
X164034096Y-117544905D01*
X164110286Y-117659190D01*
X164186477Y-117735381D01*
X164262667Y-117773476D01*
X163310286Y-117544905D02*
X163234095Y-117544905D01*
X163157905Y-117583000D01*
X163119810Y-117621095D01*
X163081714Y-117697286D01*
X163043619Y-117849667D01*
X163043619Y-118040143D01*
X163081714Y-118192524D01*
X163119810Y-118268714D01*
X163157905Y-118306810D01*
X163234095Y-118344905D01*
X163310286Y-118344905D01*
X163386476Y-118306810D01*
X163424572Y-118268714D01*
X163462667Y-118192524D01*
X163500762Y-118040143D01*
X163500762Y-117849667D01*
X163462667Y-117697286D01*
X163424572Y-117621095D01*
X163386476Y-117583000D01*
X163310286Y-117544905D01*
X170548381Y-119538714D02*
X170586476Y-119576810D01*
X170700762Y-119614905D01*
X170776952Y-119614905D01*
X170891238Y-119576810D01*
X170967429Y-119500619D01*
X171005524Y-119424429D01*
X171043619Y-119272048D01*
X171043619Y-119157762D01*
X171005524Y-119005381D01*
X170967429Y-118929190D01*
X170891238Y-118853000D01*
X170776952Y-118814905D01*
X170700762Y-118814905D01*
X170586476Y-118853000D01*
X170548381Y-118891095D01*
X170243619Y-119576810D02*
X170129333Y-119614905D01*
X169938857Y-119614905D01*
X169862667Y-119576810D01*
X169824571Y-119538714D01*
X169786476Y-119462524D01*
X169786476Y-119386333D01*
X169824571Y-119310143D01*
X169862667Y-119272048D01*
X169938857Y-119233952D01*
X170091238Y-119195857D01*
X170167429Y-119157762D01*
X170205524Y-119119667D01*
X170243619Y-119043476D01*
X170243619Y-118967286D01*
X170205524Y-118891095D01*
X170167429Y-118853000D01*
X170091238Y-118814905D01*
X169900762Y-118814905D01*
X169786476Y-118853000D01*
X169176952Y-119195857D02*
X169062666Y-119233952D01*
X169024571Y-119272048D01*
X168986476Y-119348238D01*
X168986476Y-119462524D01*
X169024571Y-119538714D01*
X169062666Y-119576810D01*
X169138857Y-119614905D01*
X169443619Y-119614905D01*
X169443619Y-118814905D01*
X169176952Y-118814905D01*
X169100762Y-118853000D01*
X169062666Y-118891095D01*
X169024571Y-118967286D01*
X169024571Y-119043476D01*
X169062666Y-119119667D01*
X169100762Y-119157762D01*
X169176952Y-119195857D01*
X169443619Y-119195857D01*
X168034095Y-119310143D02*
X167424571Y-119310143D01*
X167043619Y-119081571D02*
X166434095Y-119310143D01*
X167043619Y-119538714D01*
X164986476Y-119614905D02*
X165253143Y-119233952D01*
X165443619Y-119614905D02*
X165443619Y-118814905D01*
X165138857Y-118814905D01*
X165062666Y-118853000D01*
X165024571Y-118891095D01*
X164986476Y-118967286D01*
X164986476Y-119081571D01*
X165024571Y-119157762D01*
X165062666Y-119195857D01*
X165138857Y-119233952D01*
X165443619Y-119233952D01*
X164376952Y-119195857D02*
X164262666Y-119233952D01*
X164224571Y-119272048D01*
X164186476Y-119348238D01*
X164186476Y-119462524D01*
X164224571Y-119538714D01*
X164262666Y-119576810D01*
X164338857Y-119614905D01*
X164643619Y-119614905D01*
X164643619Y-118814905D01*
X164376952Y-118814905D01*
X164300762Y-118853000D01*
X164262666Y-118891095D01*
X164224571Y-118967286D01*
X164224571Y-119043476D01*
X164262666Y-119119667D01*
X164300762Y-119157762D01*
X164376952Y-119195857D01*
X164643619Y-119195857D01*
X163424571Y-119614905D02*
X163881714Y-119614905D01*
X163653143Y-119614905D02*
X163653143Y-118814905D01*
X163729333Y-118929190D01*
X163805524Y-119005381D01*
X163881714Y-119043476D01*
X171043619Y-120846810D02*
X170929333Y-120884905D01*
X170738857Y-120884905D01*
X170662667Y-120846810D01*
X170624571Y-120808714D01*
X170586476Y-120732524D01*
X170586476Y-120656333D01*
X170624571Y-120580143D01*
X170662667Y-120542048D01*
X170738857Y-120503952D01*
X170891238Y-120465857D01*
X170967429Y-120427762D01*
X171005524Y-120389667D01*
X171043619Y-120313476D01*
X171043619Y-120237286D01*
X171005524Y-120161095D01*
X170967429Y-120123000D01*
X170891238Y-120084905D01*
X170700762Y-120084905D01*
X170586476Y-120123000D01*
X170357905Y-120084905D02*
X169900762Y-120084905D01*
X170129333Y-120884905D02*
X170129333Y-120084905D01*
X169672190Y-120656333D02*
X169291238Y-120656333D01*
X169748381Y-120884905D02*
X169481714Y-120084905D01*
X169215047Y-120884905D01*
X169062667Y-120084905D02*
X168605524Y-120084905D01*
X168834095Y-120884905D02*
X168834095Y-120084905D01*
X166738856Y-120884905D02*
X167119809Y-120884905D01*
X167119809Y-120084905D01*
X166472190Y-120465857D02*
X166205523Y-120465857D01*
X166091237Y-120884905D02*
X166472190Y-120884905D01*
X166472190Y-120084905D01*
X166091237Y-120084905D01*
X165748380Y-120884905D02*
X165748380Y-120084905D01*
X165557904Y-120084905D01*
X165443618Y-120123000D01*
X165367427Y-120199190D01*
X165329332Y-120275381D01*
X165291237Y-120427762D01*
X165291237Y-120542048D01*
X165329332Y-120694429D01*
X165367427Y-120770619D01*
X165443618Y-120846810D01*
X165557904Y-120884905D01*
X165748380Y-120884905D01*
X164338856Y-120580143D02*
X163729332Y-120580143D01*
X163348380Y-120351571D02*
X162738856Y-120580143D01*
X163348380Y-120808714D01*
X161291237Y-120884905D02*
X161557904Y-120503952D01*
X161748380Y-120884905D02*
X161748380Y-120084905D01*
X161443618Y-120084905D01*
X161367427Y-120123000D01*
X161329332Y-120161095D01*
X161291237Y-120237286D01*
X161291237Y-120351571D01*
X161329332Y-120427762D01*
X161367427Y-120465857D01*
X161443618Y-120503952D01*
X161748380Y-120503952D01*
X160681713Y-120465857D02*
X160567427Y-120503952D01*
X160529332Y-120542048D01*
X160491237Y-120618238D01*
X160491237Y-120732524D01*
X160529332Y-120808714D01*
X160567427Y-120846810D01*
X160643618Y-120884905D01*
X160948380Y-120884905D01*
X160948380Y-120084905D01*
X160681713Y-120084905D01*
X160605523Y-120123000D01*
X160567427Y-120161095D01*
X160529332Y-120237286D01*
X160529332Y-120313476D01*
X160567427Y-120389667D01*
X160605523Y-120427762D01*
X160681713Y-120465857D01*
X160948380Y-120465857D01*
X160186475Y-120161095D02*
X160148380Y-120123000D01*
X160072189Y-120084905D01*
X159881713Y-120084905D01*
X159805523Y-120123000D01*
X159767427Y-120161095D01*
X159729332Y-120237286D01*
X159729332Y-120313476D01*
X159767427Y-120427762D01*
X160224570Y-120884905D01*
X159729332Y-120884905D01*
X140882000Y-111244000D02*
X140882000Y-110244000D01*
X142582000Y-110244000D02*
X142582000Y-111244000D01*
X140882000Y-106672000D02*
X140882000Y-105672000D01*
X142582000Y-105672000D02*
X142582000Y-106672000D01*
X137502000Y-106688000D02*
X137502000Y-107688000D01*
X135802000Y-107688000D02*
X135802000Y-106688000D01*
X147820000Y-112102000D02*
X146820000Y-112102000D01*
X146820000Y-110402000D02*
X147820000Y-110402000D01*
X132930000Y-118880000D02*
X132930000Y-119880000D01*
X131230000Y-119880000D02*
X131230000Y-118880000D01*
X140882000Y-119372000D02*
X140882000Y-118372000D01*
X142582000Y-118372000D02*
X142582000Y-119372000D01*
X135352000Y-120506000D02*
G75*
G03X135352000Y-120506000I-100000J0D01*
G01*
X135802000Y-120256000D02*
X135302000Y-120256000D01*
X135802000Y-117356000D02*
X135802000Y-120256000D01*
X135302000Y-117356000D02*
X135802000Y-117356000D01*
X135302000Y-120256000D02*
X135302000Y-117356000D01*
X140042000Y-118372000D02*
X140042000Y-119372000D01*
X138342000Y-119372000D02*
X138342000Y-118372000D01*
X163160000Y-103265000D02*
X161960000Y-103265000D01*
X161960000Y-105015000D02*
X163160000Y-105015000D01*
X164684000Y-95645000D02*
X163484000Y-95645000D01*
X163484000Y-97395000D02*
X164684000Y-97395000D01*
X138317000Y-109128000D02*
X138317000Y-110328000D01*
X140067000Y-110328000D02*
X140067000Y-109128000D01*
X135495000Y-107788000D02*
X135495000Y-106588000D01*
X133745000Y-106588000D02*
X133745000Y-107788000D01*
X153000000Y-115965000D02*
X151800000Y-115965000D01*
X151800000Y-117715000D02*
X153000000Y-117715000D01*
X146904000Y-98693000D02*
X145704000Y-98693000D01*
X145704000Y-100443000D02*
X146904000Y-100443000D01*
X150460000Y-98693000D02*
X149260000Y-98693000D01*
X149260000Y-100443000D02*
X150460000Y-100443000D01*
X146904000Y-101741000D02*
X145704000Y-101741000D01*
X145704000Y-103491000D02*
X146904000Y-103491000D01*
X150460000Y-101741000D02*
X149260000Y-101741000D01*
X149260000Y-103491000D02*
X150460000Y-103491000D01*
X144121143Y-110037524D02*
X144168762Y-109989905D01*
X144216381Y-109847048D01*
X144216381Y-109751810D01*
X144168762Y-109608952D01*
X144073524Y-109513714D01*
X143978286Y-109466095D01*
X143787810Y-109418476D01*
X143644952Y-109418476D01*
X143454476Y-109466095D01*
X143359238Y-109513714D01*
X143264000Y-109608952D01*
X143216381Y-109751810D01*
X143216381Y-109847048D01*
X143264000Y-109989905D01*
X143311619Y-110037524D01*
X144121143Y-106481524D02*
X144168762Y-106433905D01*
X144216381Y-106291048D01*
X144216381Y-106195810D01*
X144168762Y-106052952D01*
X144073524Y-105957714D01*
X143978286Y-105910095D01*
X143787810Y-105862476D01*
X143644952Y-105862476D01*
X143454476Y-105910095D01*
X143359238Y-105957714D01*
X143264000Y-106052952D01*
X143216381Y-106195810D01*
X143216381Y-106291048D01*
X143264000Y-106433905D01*
X143311619Y-106481524D01*
X137009143Y-102449334D02*
X137056762Y-102401715D01*
X137104381Y-102258858D01*
X137104381Y-102163620D01*
X137056762Y-102020762D01*
X136961524Y-101925524D01*
X136866286Y-101877905D01*
X136675810Y-101830286D01*
X136532952Y-101830286D01*
X136342476Y-101877905D01*
X136247238Y-101925524D01*
X136152000Y-102020762D01*
X136104381Y-102163620D01*
X136104381Y-102258858D01*
X136152000Y-102401715D01*
X136199619Y-102449334D01*
X137104381Y-103401715D02*
X137104381Y-102830286D01*
X137104381Y-103116000D02*
X136104381Y-103116000D01*
X136247238Y-103020762D01*
X136342476Y-102925524D01*
X136390095Y-102830286D01*
X147486666Y-113709143D02*
X147534285Y-113756762D01*
X147677142Y-113804381D01*
X147772380Y-113804381D01*
X147915238Y-113756762D01*
X148010476Y-113661524D01*
X148058095Y-113566286D01*
X148105714Y-113375810D01*
X148105714Y-113232952D01*
X148058095Y-113042476D01*
X148010476Y-112947238D01*
X147915238Y-112852000D01*
X147772380Y-112804381D01*
X147677142Y-112804381D01*
X147534285Y-112852000D01*
X147486666Y-112899619D01*
X147105714Y-112899619D02*
X147058095Y-112852000D01*
X146962857Y-112804381D01*
X146724761Y-112804381D01*
X146629523Y-112852000D01*
X146581904Y-112899619D01*
X146534285Y-112994857D01*
X146534285Y-113090095D01*
X146581904Y-113232952D01*
X147153333Y-113804381D01*
X146534285Y-113804381D01*
X132945143Y-115657334D02*
X132992762Y-115609715D01*
X133040381Y-115466858D01*
X133040381Y-115371620D01*
X132992762Y-115228762D01*
X132897524Y-115133524D01*
X132802286Y-115085905D01*
X132611810Y-115038286D01*
X132468952Y-115038286D01*
X132278476Y-115085905D01*
X132183238Y-115133524D01*
X132088000Y-115228762D01*
X132040381Y-115371620D01*
X132040381Y-115466858D01*
X132088000Y-115609715D01*
X132135619Y-115657334D01*
X132040381Y-116514477D02*
X132040381Y-116324000D01*
X132088000Y-116228762D01*
X132135619Y-116181143D01*
X132278476Y-116085905D01*
X132468952Y-116038286D01*
X132849905Y-116038286D01*
X132945143Y-116085905D01*
X132992762Y-116133524D01*
X133040381Y-116228762D01*
X133040381Y-116419239D01*
X132992762Y-116514477D01*
X132945143Y-116562096D01*
X132849905Y-116609715D01*
X132611810Y-116609715D01*
X132516571Y-116562096D01*
X132468952Y-116514477D01*
X132421333Y-116419239D01*
X132421333Y-116228762D01*
X132468952Y-116133524D01*
X132516571Y-116085905D01*
X132611810Y-116038286D01*
X142089143Y-115149334D02*
X142136762Y-115101715D01*
X142184381Y-114958858D01*
X142184381Y-114863620D01*
X142136762Y-114720762D01*
X142041524Y-114625524D01*
X141946286Y-114577905D01*
X141755810Y-114530286D01*
X141612952Y-114530286D01*
X141422476Y-114577905D01*
X141327238Y-114625524D01*
X141232000Y-114720762D01*
X141184381Y-114863620D01*
X141184381Y-114958858D01*
X141232000Y-115101715D01*
X141279619Y-115149334D01*
X141184381Y-115482667D02*
X141184381Y-116149334D01*
X142184381Y-115720762D01*
X163298095Y-102560381D02*
X163298095Y-101560381D01*
X163060000Y-101560381D01*
X162917142Y-101608000D01*
X162821904Y-101703238D01*
X162774285Y-101798476D01*
X162726666Y-101988952D01*
X162726666Y-102131810D01*
X162774285Y-102322286D01*
X162821904Y-102417524D01*
X162917142Y-102512762D01*
X163060000Y-102560381D01*
X163298095Y-102560381D01*
X161774285Y-102560381D02*
X162345714Y-102560381D01*
X162060000Y-102560381D02*
X162060000Y-101560381D01*
X162155238Y-101703238D01*
X162250476Y-101798476D01*
X162345714Y-101846095D01*
X161774095Y-96972381D02*
X161774095Y-95972381D01*
X161536000Y-95972381D01*
X161393142Y-96020000D01*
X161297904Y-96115238D01*
X161250285Y-96210476D01*
X161202666Y-96400952D01*
X161202666Y-96543810D01*
X161250285Y-96734286D01*
X161297904Y-96829524D01*
X161393142Y-96924762D01*
X161536000Y-96972381D01*
X161774095Y-96972381D01*
X160821714Y-96067619D02*
X160774095Y-96020000D01*
X160678857Y-95972381D01*
X160440761Y-95972381D01*
X160345523Y-96020000D01*
X160297904Y-96067619D01*
X160250285Y-96162857D01*
X160250285Y-96258095D01*
X160297904Y-96400952D01*
X160869333Y-96972381D01*
X160250285Y-96972381D01*
X136612190Y-116784381D02*
X136612190Y-115784381D01*
X135564571Y-116689143D02*
X135612190Y-116736762D01*
X135755047Y-116784381D01*
X135850285Y-116784381D01*
X135993143Y-116736762D01*
X136088381Y-116641524D01*
X136136000Y-116546286D01*
X136183619Y-116355810D01*
X136183619Y-116212952D01*
X136136000Y-116022476D01*
X136088381Y-115927238D01*
X135993143Y-115832000D01*
X135850285Y-115784381D01*
X135755047Y-115784381D01*
X135612190Y-115832000D01*
X135564571Y-115879619D01*
X135231238Y-115784381D02*
X134612190Y-115784381D01*
X134945524Y-116165333D01*
X134802666Y-116165333D01*
X134707428Y-116212952D01*
X134659809Y-116260571D01*
X134612190Y-116355810D01*
X134612190Y-116593905D01*
X134659809Y-116689143D01*
X134707428Y-116736762D01*
X134802666Y-116784381D01*
X135088381Y-116784381D01*
X135183619Y-116736762D01*
X135231238Y-116689143D01*
X139644381Y-115149334D02*
X139644381Y-114673143D01*
X138644381Y-114673143D01*
X139644381Y-116006477D02*
X139644381Y-115435048D01*
X139644381Y-115720762D02*
X138644381Y-115720762D01*
X138787238Y-115625524D01*
X138882476Y-115530286D01*
X138930095Y-115435048D01*
X162726666Y-106692381D02*
X163060000Y-106216190D01*
X163298095Y-106692381D02*
X163298095Y-105692381D01*
X162917142Y-105692381D01*
X162821904Y-105740000D01*
X162774285Y-105787619D01*
X162726666Y-105882857D01*
X162726666Y-106025714D01*
X162774285Y-106120952D01*
X162821904Y-106168571D01*
X162917142Y-106216190D01*
X163298095Y-106216190D01*
X161774285Y-106692381D02*
X162345714Y-106692381D01*
X162060000Y-106692381D02*
X162060000Y-105692381D01*
X162155238Y-105835238D01*
X162250476Y-105930476D01*
X162345714Y-105978095D01*
X164250666Y-99072381D02*
X164584000Y-98596190D01*
X164822095Y-99072381D02*
X164822095Y-98072381D01*
X164441142Y-98072381D01*
X164345904Y-98120000D01*
X164298285Y-98167619D01*
X164250666Y-98262857D01*
X164250666Y-98405714D01*
X164298285Y-98500952D01*
X164345904Y-98548571D01*
X164441142Y-98596190D01*
X164822095Y-98596190D01*
X163869714Y-98167619D02*
X163822095Y-98120000D01*
X163726857Y-98072381D01*
X163488761Y-98072381D01*
X163393523Y-98120000D01*
X163345904Y-98167619D01*
X163298285Y-98262857D01*
X163298285Y-98358095D01*
X163345904Y-98500952D01*
X163917333Y-99072381D01*
X163298285Y-99072381D01*
X140152381Y-113117334D02*
X139676190Y-112784000D01*
X140152381Y-112545905D02*
X139152381Y-112545905D01*
X139152381Y-112926858D01*
X139200000Y-113022096D01*
X139247619Y-113069715D01*
X139342857Y-113117334D01*
X139485714Y-113117334D01*
X139580952Y-113069715D01*
X139628571Y-113022096D01*
X139676190Y-112926858D01*
X139676190Y-112545905D01*
X139152381Y-113450667D02*
X139152381Y-114069715D01*
X139533333Y-113736381D01*
X139533333Y-113879239D01*
X139580952Y-113974477D01*
X139628571Y-114022096D01*
X139723810Y-114069715D01*
X139961905Y-114069715D01*
X140057143Y-114022096D01*
X140104762Y-113974477D01*
X140152381Y-113879239D01*
X140152381Y-113593524D01*
X140104762Y-113498286D01*
X140057143Y-113450667D01*
X132972381Y-107021334D02*
X132496190Y-106688000D01*
X132972381Y-106449905D02*
X131972381Y-106449905D01*
X131972381Y-106830858D01*
X132020000Y-106926096D01*
X132067619Y-106973715D01*
X132162857Y-107021334D01*
X132305714Y-107021334D01*
X132400952Y-106973715D01*
X132448571Y-106926096D01*
X132496190Y-106830858D01*
X132496190Y-106449905D01*
X132305714Y-107878477D02*
X132972381Y-107878477D01*
X131924762Y-107640381D02*
X132639048Y-107402286D01*
X132639048Y-108021334D01*
X152058666Y-115260381D02*
X152392000Y-114784190D01*
X152630095Y-115260381D02*
X152630095Y-114260381D01*
X152249142Y-114260381D01*
X152153904Y-114308000D01*
X152106285Y-114355619D01*
X152058666Y-114450857D01*
X152058666Y-114593714D01*
X152106285Y-114688952D01*
X152153904Y-114736571D01*
X152249142Y-114784190D01*
X152630095Y-114784190D01*
X151201523Y-114260381D02*
X151392000Y-114260381D01*
X151487238Y-114308000D01*
X151534857Y-114355619D01*
X151630095Y-114498476D01*
X151677714Y-114688952D01*
X151677714Y-115069905D01*
X151630095Y-115165143D01*
X151582476Y-115212762D01*
X151487238Y-115260381D01*
X151296761Y-115260381D01*
X151201523Y-115212762D01*
X151153904Y-115165143D01*
X151106285Y-115069905D01*
X151106285Y-114831810D01*
X151153904Y-114736571D01*
X151201523Y-114688952D01*
X151296761Y-114641333D01*
X151487238Y-114641333D01*
X151582476Y-114688952D01*
X151630095Y-114736571D01*
X151677714Y-114831810D01*
X143930666Y-100020381D02*
X144264000Y-99544190D01*
X144502095Y-100020381D02*
X144502095Y-99020381D01*
X144121142Y-99020381D01*
X144025904Y-99068000D01*
X143978285Y-99115619D01*
X143930666Y-99210857D01*
X143930666Y-99353714D01*
X143978285Y-99448952D01*
X144025904Y-99496571D01*
X144121142Y-99544190D01*
X144502095Y-99544190D01*
X143597333Y-99020381D02*
X142930666Y-99020381D01*
X143359238Y-100020381D01*
X153074666Y-100020381D02*
X153408000Y-99544190D01*
X153646095Y-100020381D02*
X153646095Y-99020381D01*
X153265142Y-99020381D01*
X153169904Y-99068000D01*
X153122285Y-99115619D01*
X153074666Y-99210857D01*
X153074666Y-99353714D01*
X153122285Y-99448952D01*
X153169904Y-99496571D01*
X153265142Y-99544190D01*
X153646095Y-99544190D01*
X152503238Y-99448952D02*
X152598476Y-99401333D01*
X152646095Y-99353714D01*
X152693714Y-99258476D01*
X152693714Y-99210857D01*
X152646095Y-99115619D01*
X152598476Y-99068000D01*
X152503238Y-99020381D01*
X152312761Y-99020381D01*
X152217523Y-99068000D01*
X152169904Y-99115619D01*
X152122285Y-99210857D01*
X152122285Y-99258476D01*
X152169904Y-99353714D01*
X152217523Y-99401333D01*
X152312761Y-99448952D01*
X152503238Y-99448952D01*
X152598476Y-99496571D01*
X152646095Y-99544190D01*
X152693714Y-99639429D01*
X152693714Y-99829905D01*
X152646095Y-99925143D01*
X152598476Y-99972762D01*
X152503238Y-100020381D01*
X152312761Y-100020381D01*
X152217523Y-99972762D01*
X152169904Y-99925143D01*
X152122285Y-99829905D01*
X152122285Y-99639429D01*
X152169904Y-99544190D01*
X152217523Y-99496571D01*
X152312761Y-99448952D01*
X146470666Y-105168381D02*
X146804000Y-104692190D01*
X147042095Y-105168381D02*
X147042095Y-104168381D01*
X146661142Y-104168381D01*
X146565904Y-104216000D01*
X146518285Y-104263619D01*
X146470666Y-104358857D01*
X146470666Y-104501714D01*
X146518285Y-104596952D01*
X146565904Y-104644571D01*
X146661142Y-104692190D01*
X147042095Y-104692190D01*
X145994476Y-105168381D02*
X145804000Y-105168381D01*
X145708761Y-105120762D01*
X145661142Y-105073143D01*
X145565904Y-104930286D01*
X145518285Y-104739810D01*
X145518285Y-104358857D01*
X145565904Y-104263619D01*
X145613523Y-104216000D01*
X145708761Y-104168381D01*
X145899238Y-104168381D01*
X145994476Y-104216000D01*
X146042095Y-104263619D01*
X146089714Y-104358857D01*
X146089714Y-104596952D01*
X146042095Y-104692190D01*
X145994476Y-104739810D01*
X145899238Y-104787429D01*
X145708761Y-104787429D01*
X145613523Y-104739810D01*
X145565904Y-104692190D01*
X145518285Y-104596952D01*
X150502857Y-105168381D02*
X150836191Y-104692190D01*
X151074286Y-105168381D02*
X151074286Y-104168381D01*
X150693333Y-104168381D01*
X150598095Y-104216000D01*
X150550476Y-104263619D01*
X150502857Y-104358857D01*
X150502857Y-104501714D01*
X150550476Y-104596952D01*
X150598095Y-104644571D01*
X150693333Y-104692190D01*
X151074286Y-104692190D01*
X149550476Y-105168381D02*
X150121905Y-105168381D01*
X149836191Y-105168381D02*
X149836191Y-104168381D01*
X149931429Y-104311238D01*
X150026667Y-104406476D01*
X150121905Y-104454095D01*
X148931429Y-104168381D02*
X148836190Y-104168381D01*
X148740952Y-104216000D01*
X148693333Y-104263619D01*
X148645714Y-104358857D01*
X148598095Y-104549333D01*
X148598095Y-104787429D01*
X148645714Y-104977905D01*
X148693333Y-105073143D01*
X148740952Y-105120762D01*
X148836190Y-105168381D01*
X148931429Y-105168381D01*
X149026667Y-105120762D01*
X149074286Y-105073143D01*
X149121905Y-104977905D01*
X149169524Y-104787429D01*
X149169524Y-104549333D01*
X149121905Y-104358857D01*
X149074286Y-104263619D01*
X149026667Y-104216000D01*
X148931429Y-104168381D01*
M02*
