M48
;DRILL file {KiCad 4.0.1-3.201512221402+6198~38~ubuntu14.04.1-stable} date Sun 24 Jan 2016 12:58:06 PM PST
;FORMAT={-:-/ absolute / inch / decimal}
FMAT,2
INCH,TZ
T1C0.016
T2C0.040
T3C0.079
%
G90
G05
M72
T1
X5.18Y-4.28
X5.18Y-4.54
X5.2Y-4.34
X5.2Y-4.42
X5.22Y-4.16
X5.3653Y-4.113
X5.3667Y-4.4837
X5.38Y-4.36
X5.4145Y-4.122
X5.42Y-4.46
X5.44Y-4.0291
X5.4451Y-4.4349
X5.4491Y-4.18
X5.5Y-4.06
X5.52Y-4.14
X5.52Y-4.2
X5.6274Y-4.0102
X5.6537Y-4.0761
X5.66Y-4.36
X5.66Y-4.4
X5.66Y-4.64
X5.66Y-4.76
X5.76Y-4.28
X5.86Y-4.58
X5.92Y-4.42
X5.92Y-4.46
X5.94Y-4.14
X5.96Y-3.98
X6.04Y-4.52
X6.2279Y-4.0545
X6.3Y-3.76
X6.36Y-3.76
X6.46Y-3.86
X6.5Y-4.1
X6.54Y-3.92
X6.56Y-3.78
T2
X5.04Y-3.82
X5.04Y-3.92
X5.04Y-4.02
X5.04Y-4.12
X5.04Y-4.22
X5.04Y-4.32
X5.04Y-4.42
X5.04Y-4.52
X5.04Y-4.62
X5.04Y-4.72
X5.32Y-3.8
X5.32Y-3.94
X5.42Y-3.8
X5.42Y-3.94
X5.52Y-3.8
X5.52Y-3.94
X5.7Y-3.8
X5.78Y-4.72
X5.8Y-3.81
X5.88Y-4.72
X5.9Y-3.8
X5.98Y-4.72
X6.Y-3.81
X6.1Y-3.8
X6.2Y-3.81
X6.68Y-3.8
X6.68Y-3.9
X6.68Y-4.
X6.68Y-4.1
T3
X6.2Y-4.4913
X6.2Y-4.7
T0
M30
