G04 #@! TF.FileFunction,Soldermask,Bot*
%FSLAX46Y46*%
G04 Gerber Fmt 4.6, Leading zero omitted, Abs format (unit mm)*
G04 Created by KiCad (PCBNEW 4.0.1-3.201512221402+6198~38~ubuntu14.04.1-stable) date Sun 24 Jan 2016 12:58:10 PM PST*
%MOMM*%
G01*
G04 APERTURE LIST*
%ADD10C,0.100000*%
%ADD11R,1.650000X1.900000*%
%ADD12R,1.900000X1.650000*%
%ADD13R,1.460000X1.050000*%
%ADD14R,2.127200X2.432000*%
%ADD15O,2.127200X2.432000*%
%ADD16R,2.432000X2.127200*%
%ADD17O,2.432000X2.127200*%
%ADD18R,1.100000X1.700000*%
%ADD19R,1.700000X1.900000*%
%ADD20C,3.400000*%
G04 APERTURE END LIST*
D10*
D11*
X141732000Y-109494000D03*
X141732000Y-111994000D03*
X141732000Y-104922000D03*
X141732000Y-107422000D03*
X136652000Y-108438000D03*
X136652000Y-105938000D03*
D12*
X146070000Y-111252000D03*
X148570000Y-111252000D03*
D11*
X132080000Y-120630000D03*
X132080000Y-118130000D03*
X141732000Y-117622000D03*
X141732000Y-120122000D03*
D13*
X134452000Y-119756000D03*
X134452000Y-118806000D03*
X134452000Y-117856000D03*
X136652000Y-117856000D03*
X136652000Y-119756000D03*
D11*
X139192000Y-120122000D03*
X139192000Y-117622000D03*
D14*
X157480000Y-96774000D03*
D15*
X154940000Y-96520000D03*
X152400000Y-96774000D03*
X149860000Y-96520000D03*
X147320000Y-96774000D03*
X144780000Y-96520000D03*
D16*
X169672000Y-104140000D03*
D17*
X169672000Y-101600000D03*
X169672000Y-99060000D03*
X169672000Y-96520000D03*
D16*
X128016000Y-119888000D03*
D17*
X128016000Y-117348000D03*
X128016000Y-114808000D03*
X128016000Y-112268000D03*
X128016000Y-109728000D03*
X128016000Y-107188000D03*
X128016000Y-104648000D03*
X128016000Y-102108000D03*
X128016000Y-99568000D03*
X128016000Y-97028000D03*
D14*
X135128000Y-100076000D03*
D15*
X137668000Y-100076000D03*
X140208000Y-100076000D03*
D14*
X135128000Y-96520000D03*
D15*
X137668000Y-96520000D03*
X140208000Y-96520000D03*
D18*
X161610000Y-104140000D03*
X163510000Y-104140000D03*
X163134000Y-96520000D03*
X165034000Y-96520000D03*
D19*
X139192000Y-111078000D03*
X139192000Y-108378000D03*
X134620000Y-105838000D03*
X134620000Y-108538000D03*
D18*
X151450000Y-116840000D03*
X153350000Y-116840000D03*
X145354000Y-99568000D03*
X147254000Y-99568000D03*
X148910000Y-99568000D03*
X150810000Y-99568000D03*
X145354000Y-102616000D03*
X147254000Y-102616000D03*
X148910000Y-102616000D03*
X150810000Y-102616000D03*
D20*
X157480000Y-119380000D03*
X157480000Y-114080000D03*
D14*
X146812000Y-119888000D03*
D15*
X149352000Y-119888000D03*
X151892000Y-119888000D03*
M02*
